<svg id="图层_1" data-name="图层 1" xmlns="http://www.w3.org/2000/svg" viewBox="0 0 45.1549 9.56"><defs><style>.cls-1,.cls-3,.cls-4{fill:#00a0e9;}.cls-1,.cls-4,.cls-8{stroke:#00a0e9;}.cls-1,.cls-4,.cls-5,.cls-6,.cls-7,.cls-8{stroke-miterlimit:10;}.cls-2{fill:#e2e0e0;}.cls-4,.cls-7{stroke-width:0.5px;}.cls-5{fill:#fff;stroke-width:0.25px;}.cls-5,.cls-6,.cls-7{stroke:#e9548a;}.cls-6{fill:#e83828;}.cls-7,.cls-9{fill:#e9548a;}.cls-8{fill:#227c9a;}</style></defs><title>LetsGibson</title><path class="cls-1" d="M24.77,7.4917a1.9392,1.9392,0,0,1-1.5859-.6836,2.8867,2.8867,0,0,1-.5625-1.8867,2.865,2.865,0,0,1,.543-1.8706A1.8926,1.8926,0,0,1,24.71,2.3936a2.0727,2.0727,0,0,1,1.0444.2529,1.8689,1.8689,0,0,1,.7241.8052l-.3232.1547a1.4642,1.4642,0,0,0-1.4419-.9,1.5311,1.5311,0,0,0-1.2866.5694,2.6352,2.6352,0,0,0-.4429,1.6455,2.6194,2.6194,0,0,0,.4726,1.66,1.5775,1.5775,0,0,0,1.3135.601,2.1027,2.1027,0,0,0,.8032-.1528,1.7355,1.7355,0,0,0,.649-.4624V5.3647H24.77V5.0586h1.79V6.6724a2.6315,2.6315,0,0,1-.8423.6328A2.3233,2.3233,0,0,1,24.77,7.4917Z" transform="translate(-0.5254 -1.4404)"/><path class="cls-2" d="M28.9606,5.5463c0,.3255-1.492.97-1.492,1.3157V6.4958c0-.3459,1.492-1.0105,1.492-1.3361Z" transform="translate(-0.5254 -1.4404)"/><path class="cls-2" d="M28.9606,4.8545c0,.3256-1.492.97-1.492,1.3157v-.373c0-.3459,1.492-1.0105,1.492-1.336Z" transform="translate(-0.5254 -1.4404)"/><path class="cls-2" d="M28.9606,2.9963c0,.3255-1.492.97-1.492,1.3157V3.939c0-.3459,1.492-1.01,1.492-1.3361Z" transform="translate(-0.5254 -1.4404)"/><path class="cls-2" d="M28.9606,2.3045c0,.3256-1.492.97-1.492,1.3157v-.373c0-.3458,1.492-1.01,1.492-1.336Z" transform="translate(-0.5254 -1.4404)"/><path class="cls-3" d="M28.9606,7.079c0-.3255-1.492-.97-1.492-1.3157v.373c0,.3459,1.492,1.01,1.492,1.336Z" transform="translate(-0.5254 -1.4404)"/><path class="cls-3" d="M28.9606,7.7707c0-.3255-1.492-.97-1.492-1.3156v.373c0,.3458,1.492,1.01,1.492,1.336Z" transform="translate(-0.5254 -1.4404)"/><path class="cls-3" d="M28.9606,4.529c0-.3255-1.492-.97-1.492-1.3157V3.58c0,.3459,1.492,1.0105,1.492,1.3361Z" transform="translate(-0.5254 -1.4404)"/><path class="cls-3" d="M28.9606,5.2208c0-.3256-1.492-.97-1.492-1.3157v.373c0,.3459,1.492,1.01,1.492,1.336Z" transform="translate(-0.5254 -1.4404)"/><path class="cls-4" d="M32.9072,5.6206a2.1029,2.1029,0,0,1-.4062,1.3838,1.5727,1.5727,0,0,1-1.8667.3076,1.342,1.342,0,0,1-.4976-.5664h-.0141c0,.0635-.0049.1777-.0142.3433s-.0161.2758-.021.332h-.313q.0249-.457.0249-.7417V2.312h.3374V4.0664c0,.082-.0014.1626-.0034.2412s-.0059.1587-.0107.2407h.0141a1.4946,1.4946,0,0,1,.5274-.5942,1.5039,1.5039,0,0,1,.77-.1758,1.3093,1.3093,0,0,1,1.0884.4854A2.134,2.134,0,0,1,32.9072,5.6206Zm-.3408,0a1.9015,1.9015,0,0,0-.3008-1.1621,1.03,1.03,0,0,0-.8735-.3955,1.1479,1.1479,0,0,0-.9282.3867,1.83,1.83,0,0,0-.3272,1.1992,1.8976,1.8976,0,0,0,.3023,1.1636,1.06,1.06,0,0,0,.9.3975,1.076,1.076,0,0,0,.9174-.4112A1.9334,1.9334,0,0,0,32.5664,5.6206Z" transform="translate(-0.5254 -1.4404)"/><path class="cls-4" d="M36.0688,6.4507a.9372.9372,0,0,1-.3271.7661,1.3984,1.3984,0,0,1-.9175.271,1.5729,1.5729,0,0,1-.8755-.2129,1.0377,1.0377,0,0,1-.4292-.67l.3238-.06a.8383.8383,0,0,0,.3305.5029,1.1293,1.1293,0,0,0,.6431.1617,1.0418,1.0418,0,0,0,.6753-.188.664.664,0,0,0,.2285-.5435.6388.6388,0,0,0-.0771-.334.61.61,0,0,0-.2149-.2075,1.3265,1.3265,0,0,0-.3266-.1318q-.1905-.0506-.4151-.1109a2.266,2.266,0,0,1-.5854-.2143.8254.8254,0,0,1-.2989-.2935.8456.8456,0,0,1-.104-.4341.9006.9006,0,0,1,.294-.7211,1.26,1.26,0,0,1,.8457-.253,1.4358,1.4358,0,0,1,.789.1846.9507.9507,0,0,1,.3853.603l-.334.042a.6737.6737,0,0,0-.2622-.4184,1.0394,1.0394,0,0,0-.5781-.13.9086.9086,0,0,0-.5982.1689.595.595,0,0,0-.2.4815.6006.6006,0,0,0,.065.3022.5238.5238,0,0,0,.1865.1865,1.2264,1.2264,0,0,0,.2969.125c.1172.0337.25.0708.3974.1109a2.73,2.73,0,0,1,.6734.2549.9123.9123,0,0,1,.3008.3022A.8815.8815,0,0,1,36.0688,6.4507Z" transform="translate(-0.5254 -1.4404)"/><path class="cls-4" d="M43.2183,7.4209V5.2725a1.536,1.536,0,0,0-.22-.9.8122.8122,0,0,0-.7085-.3062,1.0149,1.0149,0,0,0-.833.3833,1.5924,1.5924,0,0,0-.3095,1.03V7.4209H40.81V4.64c0-.1333-.0025-.2656-.0074-.3955s-.01-.2617-.0175-.3955H41.07q.05.5172.0493.7105h.0142a1.252,1.252,0,0,1,.457-.57,1.2856,1.2856,0,0,1,.7383-.2076,1.1392,1.1392,0,0,1,.9194.3536A1.6436,1.6436,0,0,1,43.5488,5.22V7.4209Z" transform="translate(-0.5254 -1.4404)"/><rect class="cls-5" x="37.0471" y="4.3704" width="2.9436" height="2.9436" rx="1.4718" ry="1.4718" transform="translate(32.1512 42.9206) rotate(-90)"/><circle class="cls-5" cx="37.9934" cy="4.4017" r="1.0001"/><line class="cls-6" x1="0.5001" y1="9.0599" x2="29.0844" y2="9.0599"/><path class="cls-7" d="M4.7515,8.9473a.6917.6917,0,0,1-.0108.1294.3414.3414,0,0,1-.0327.0947.1421.1421,0,0,1-.0537.0591.1478.1478,0,0,1-.0757.019H1.55a.3486.3486,0,0,1-.2-.0727.3075.3075,0,0,1-.1025-.2676V2.3706a.1144.1144,0,0,1,.0161-.06.1122.1122,0,0,1,.0542-.0429A.458.458,0,0,1,1.42,2.2412a.9571.9571,0,0,1,.1567-.0107.9525.9525,0,0,1,.1592.0107.4644.4644,0,0,1,.1.0269A.1122.1122,0,0,1,1.89,2.311a.1145.1145,0,0,1,.0162.06V8.65H4.5786a.1527.1527,0,0,1,.0757.0185.1549.1549,0,0,1,.0537.0542.2677.2677,0,0,1,.0327.0918A.7417.7417,0,0,1,4.7515,8.9473Z" transform="translate(-0.5254 -1.4404)"/><path class="cls-7" d="M9.7461,6.4473a.3069.3069,0,0,1-.103.2671.3447.3447,0,0,1-.2.0732H6.1118a3.4705,3.4705,0,0,0,.0894.82,1.6238,1.6238,0,0,0,.2944.6294,1.3233,1.3233,0,0,0,.5342.4019,2.0659,2.0659,0,0,0,.81.1406,2.8235,2.8235,0,0,0,.61-.06,3.5355,3.5355,0,0,0,.4668-.1323q.1969-.0724.3242-.1323a.5092.5092,0,0,1,.1807-.0591.1148.1148,0,0,1,.0595.0161.1127.1127,0,0,1,.043.0513.3293.3293,0,0,1,.0244.0893.9234.9234,0,0,1,.0083.1348.4388.4388,0,0,1-.0058.0727.5317.5317,0,0,1-.0132.065.2248.2248,0,0,1-.0244.0566.2965.2965,0,0,1-.043.0542.8323.8323,0,0,1-.1675.0943,2.5589,2.5589,0,0,1-.3672.1352,4.866,4.866,0,0,1-.5263.1211,3.6325,3.6325,0,0,1-.6455.0542,2.7613,2.7613,0,0,1-1.0044-.17,1.8831,1.8831,0,0,1-.7339-.5025,2.195,2.195,0,0,1-.4512-.8232,3.8223,3.8223,0,0,1-.1538-1.1392A3.6063,3.6063,0,0,1,5.58,5.5942,2.3753,2.3753,0,0,1,6.0366,4.76a1.9628,1.9628,0,0,1,.7154-.5235,2.3221,2.3221,0,0,1,.9311-.1811,2.19,2.19,0,0,1,.94.1836,1.7955,1.7955,0,0,1,.64.4941,2,2,0,0,1,.3672.7207,3.1717,3.1717,0,0,1,.1162.8638Zm-.6646-.189a1.755,1.755,0,0,0-.3559-1.2148A1.3476,1.3476,0,0,0,7.64,4.606a1.4374,1.4374,0,0,0-.6455.1377,1.4552,1.4552,0,0,0-.47.3642,1.6232,1.6232,0,0,0-.2939.5269,2.28,2.28,0,0,0-.1192.6235Z" transform="translate(-0.5254 -1.4404)"/><path class="cls-7" d="M13.5254,8.85a.7215.7215,0,0,1-.0191.1836.24.24,0,0,1-.059.11.3966.3966,0,0,1-.1192.0757.9983.9983,0,0,1-.1806.06,1.9162,1.9162,0,0,1-.2159.0376,1.8125,1.8125,0,0,1-.2216.0137,1.7211,1.7211,0,0,1-.6153-.0972.9814.9814,0,0,1-.416-.2944,1.2321,1.2321,0,0,1-.2349-.4995,3.0819,3.0819,0,0,1-.0727-.7124V4.687h-.729a.1341.1341,0,0,1-.1187-.0674A.3811.3811,0,0,1,10.48,4.417a.6278.6278,0,0,1,.0107-.1216.2681.2681,0,0,1,.0327-.0864.1362.1362,0,0,1,.0513-.0513.1379.1379,0,0,1,.0674-.0161h.729V2.9429a.1327.1327,0,0,1,.0132-.0591.1076.1076,0,0,1,.0517-.0459.31.31,0,0,1,.1-.0274,1.2494,1.2494,0,0,1,.1539-.0078,1.2935,1.2935,0,0,1,.1591.0078.29.29,0,0,1,.0977.0274.1321.1321,0,0,1,.0513.0459.1136.1136,0,0,1,.0161.0591V4.1416h1.35a.1382.1382,0,0,1,.0674.0161.14.14,0,0,1,.0517.0513.2777.2777,0,0,1,.0322.0864.5832.5832,0,0,1,.0108.1216A.3613.3613,0,0,1,13.48,4.62a.1365.1365,0,0,1-.1162.0674h-1.35V7.6406a1.802,1.802,0,0,0,.1592.8477.6022.6022,0,0,0,.58.2915.9423.9423,0,0,0,.2349-.0269,1.5578,1.5578,0,0,0,.186-.0595c.0542-.0215.1-.0415.1377-.06a.246.246,0,0,1,.1-.0269.1086.1086,0,0,1,.0483.0108.079.079,0,0,1,.0352.0405.3068.3068,0,0,1,.0215.0757A.6858.6858,0,0,1,13.5254,8.85Z" transform="translate(-0.5254 -1.4404)"/><path class="cls-7" d="M16.2539,2.063a2.239,2.239,0,0,1-.0137.2593,1.2382,1.2382,0,0,1-.0459.2265,1.3009,1.3009,0,0,1-.0864.2158,1.9076,1.9076,0,0,1-.1348.2271l-.75,1.15a.3531.3531,0,0,1-.0513.06.2331.2331,0,0,1-.07.0429.4255.4255,0,0,1-.0943.0245.9478.9478,0,0,1-.1352.0083.7773.7773,0,0,1-.1026-.0059.1169.1169,0,0,1-.062-.0215.06.06,0,0,1-.0215-.043.1138.1138,0,0,1,.0186-.0649l.75-1.48V2.063a.6839.6839,0,0,1,.022-.1919.2261.2261,0,0,1,.07-.1133.2678.2678,0,0,1,.1245-.0542,1.0845,1.0845,0,0,1,.1836-.0132,1.0529,1.0529,0,0,1,.1782.0132.2658.2658,0,0,1,.124.0542.244.244,0,0,1,.0728.1133A.6266.6266,0,0,1,16.2539,2.063Z" transform="translate(-0.5254 -1.4404)"/><path class="cls-7" d="M20.2671,7.84a1.47,1.47,0,0,1-.13.6289,1.3166,1.3166,0,0,1-.37.4727,1.6955,1.6955,0,0,1-.5752.2969,2.519,2.519,0,0,1-.7393.1025,2.7485,2.7485,0,0,1-.48-.04,2.8237,2.8237,0,0,1-.4107-.1026,1.91,1.91,0,0,1-.31-.1323,1.0446,1.0446,0,0,1-.1866-.124.3144.3144,0,0,1-.0864-.1353.6974.6974,0,0,1-.0269-.2158.6247.6247,0,0,1,.0108-.124A.4745.4745,0,0,1,16.99,8.375a.1293.1293,0,0,1,.0435-.0571.1035.1035,0,0,1,.0591-.0186.36.36,0,0,1,.1728.0757q.1136.0755.2837.1646a2.5739,2.5739,0,0,0,.4048.1645,1.9537,1.9537,0,0,0,.9956.0215,1.0785,1.0785,0,0,0,.3565-.1616.7346.7346,0,0,0,.2348-.2784.8892.8892,0,0,0,.084-.3969.661.661,0,0,0-.1079-.3833,1.0386,1.0386,0,0,0-.2837-.2725,2.1754,2.1754,0,0,0-.3994-.2051q-.2241-.0892-.4585-.1836t-.459-.208a1.7457,1.7457,0,0,1-.3994-.2754,1.2009,1.2009,0,0,1-.3916-.934,1.3438,1.3438,0,0,1,.0972-.5,1.235,1.235,0,0,1,.3-.44,1.4982,1.4982,0,0,1,.518-.3135,2.1259,2.1259,0,0,1,.7476-.1186,2.3321,2.3321,0,0,1,.6938.1079,1.754,1.754,0,0,1,.2564.1055,1.176,1.176,0,0,1,.1645.1.3188.3188,0,0,1,.0757.0727.2046.2046,0,0,1,.0269.062.7232.7232,0,0,1,.0137.0781,1.0267,1.0267,0,0,1,.0053.1109.7512.7512,0,0,1-.0083.1162.37.37,0,0,1-.0239.0889.1351.1351,0,0,1-.0405.0566.0892.0892,0,0,1-.0567.019.2686.2686,0,0,1-.13-.0595,1.986,1.986,0,0,0-.2265-.1294,2.1539,2.1539,0,0,0-.335-.1294,1.5338,1.5338,0,0,0-.4482-.06,1.5071,1.5071,0,0,0-.4448.06.8658.8658,0,0,0-.316.167.6877.6877,0,0,0-.186.2539.804.804,0,0,0-.0625.3188.7019.7019,0,0,0,.1084.3994,1.0059,1.0059,0,0,0,.2861.2808,2.2409,2.2409,0,0,0,.4048.21q.2264.0923.4614.1836t.4615.2026a1.8034,1.8034,0,0,1,.4048.2671,1.1951,1.1951,0,0,1,.2861.3755A1.1735,1.1735,0,0,1,20.2671,7.84Z" transform="translate(-0.5254 -1.4404)"/><line class="cls-8" x1="21.8704" y1="7.5794" x2="44.7174" y2="7.5794"/><circle class="cls-9" cx="0.5001" cy="9.0599" r="0.5001"/><circle class="cls-9" cx="29.0844" cy="9.0578" r="0.5001"/><circle class="cls-3" cx="21.8704" cy="7.5794" r="0.5001"/><circle class="cls-3" cx="44.6548" cy="7.5794" r="0.5001"/></svg>